<svg width="527" height="74" viewBox="0 0 527 74" fill="none" xmlns="http://www.w3.org/2000/svg">
<path d="M0.115912 24.3357C1.32826 12.6488 13.4637 4.66329 25.0048 4.26937C36.5499 3.786 47.4985 8.92251 57.8364 13.9428C68.2582 19.0564 79.0234 24.3642 90.549 24.328C113.069 24.3223 133.209 4.22847 155.379 8.24019C171.789 11.1947 185.519 27.2062 202.006 24.3391C213.174 22.4054 221.368 12.008 232.316 9.07902C245.047 5.6003 257.929 12.7925 270.019 17.9787C299.893 30.9289 334.732 32.893 364.993 20.7675C378.959 15.1917 391.908 6.70394 406.418 2.76496C423.774 -1.85677 442.849 0.496801 458.566 9.24627C469.644 15.4638 479.008 24.6537 490.178 30.7856C501.347 36.9175 515.745 39.6052 526.265 32.356L524.638 69.7449L13.1273 73.6167L0.115912 24.3357Z" fill="#EDFBF9"/>
</svg>
