<svg width="552" height="108" viewBox="0 0 552 108" fill="none" xmlns="http://www.w3.org/2000/svg">
<path d="M552 96.9397C551.528 74.321 535.773 62.1646 519.357 59.4743C502.942 56.784 486.149 61.2679 470.299 65.951C454.449 70.6342 438.034 75.716 421.429 74.2213C389.447 71.4314 361.899 44.9266 330.2 49.809C317.181 51.8019 306.048 58.9761 294.538 64.7553C283.029 70.5346 269.443 75.1181 256.896 71.6306C241.423 67.346 232.272 52.1008 216.989 47.318C194.252 40.1437 168.874 58.5775 146.043 51.6026C135.288 48.3144 127.457 39.9445 121.136 31.3752C114.721 22.9057 108.966 13.7386 100.098 7.36149C91.2295 0.984399 77.8329 -1.80558 68.3986 3.97366C57.9265 10.4504 53.681 25.9946 40.9448 26.1938C32.0765 26.2935 26.1329 18.3221 21.3215 11.6461C16.51 4.97008 8.30217 -2.10451 -1.90566e-06 0.585831L0.849049 108L552 96.9397Z" fill="#EDFBF9"/>
</svg>
