<svg width="13" height="10" viewBox="0 0 13 10" fill="none" xmlns="http://www.w3.org/2000/svg">
<path d="M0 5.00002C0 4.80111 0.0790175 4.61035 0.21967 4.46969C0.360322 4.32904 0.551088 4.25002 0.75 4.25002H9.537L6.25 1.30902C6.10307 1.17606 6.01474 0.990356 6.00429 0.792475C5.99384 0.594593 6.06213 0.400618 6.19424 0.252922C6.32635 0.105227 6.51154 0.0158142 6.70935 0.00421651C6.90717 -0.00738122 7.10154 0.0597784 7.25 0.191025L12 4.44102C12.0786 4.51137 12.1416 4.59752 12.1846 4.69385C12.2277 4.79018 12.25 4.89451 12.25 5.00002C12.25 5.10554 12.2277 5.20987 12.1846 5.3062C12.1416 5.40252 12.0786 5.48868 12 5.55902L7.25 9.80902C7.1767 9.87536 7.09101 9.92655 6.99786 9.95965C6.90471 9.99274 6.80593 10.0071 6.70721 10.0019C6.60849 9.99668 6.51177 9.972 6.42262 9.92927C6.33347 9.88655 6.25365 9.82662 6.18774 9.75294C6.12183 9.67926 6.07115 9.59327 6.03859 9.49993C6.00603 9.40658 5.99225 9.30772 5.99804 9.20903C6.00382 9.11035 6.02906 9.01377 6.0723 8.92488C6.11555 8.83598 6.17593 8.7565 6.25 8.69102L9.537 5.75002H0.75C0.551088 5.75002 0.360322 5.67101 0.21967 5.53035C0.0790175 5.3897 0 5.19894 0 5.00002Z" fill="black"/>
</svg>
