<svg width="2558" height="1135" viewBox="0 0 2558 1135" fill="none" xmlns="http://www.w3.org/2000/svg">
<path d="M2558 1134.5V48.7802C2552.82 48.7802 2547.65 49.4975 2541.73 49.4975C2440.42 49.4975 2440.42 0 2339.84 0C2238.53 0 2238.53 49.4975 2137.95 49.4975C2036.64 49.4975 2036.64 0 1936.06 0C1834.75 0 1834.75 49.4975 1734.17 49.4975C1632.86 49.4975 1632.86 0 1532.29 0C1430.97 0 1430.97 49.4975 1330.4 49.4975C1229.08 49.4975 1229.08 0 1128.51 0C1027.19 0 1027.19 49.4975 926.619 49.4975C825.304 49.4975 825.304 0 723.99 0C623.415 0 623.415 49.4975 522.101 49.4975C421.526 49.4975 421.526 0 320.212 0C219.637 0 219.637 49.4975 118.323 49.4975C56.2035 49.4975 32.5389 30.8463 0 16.4992V1134.5H2558Z" fill="#7BC9B0"/>
</svg>
