<svg width="355" height="316" viewBox="0 0 355 316" fill="none" xmlns="http://www.w3.org/2000/svg">
<path d="M15.3879 82.6281C22.7454 85.7456 40.573 85.4622 40.573 85.4622C40.856 85.4622 36.6113 73.8425 36.3284 72.9923C32.3666 64.7734 19.9156 51.1698 10.0113 52.5869C2.65388 53.4371 -1.30781 60.8057 0.39006 67.6075C2.08793 74.6927 9.16238 79.7941 15.3879 82.6281Z" fill="#93D1C4"/>
<path d="M21.6135 134.492C29.254 135.626 45.1008 131.091 46.5157 130.525C49.0625 139.594 52.4582 148.379 56.1369 157.448C58.4008 162.55 60.6646 167.651 63.2114 172.752C61.7965 170.485 60.3816 168.785 60.0986 168.501C54.156 161.7 38.5922 151.78 29.2539 155.748C22.4624 158.582 20.4816 166.801 23.8773 173.036C27.2731 179.271 35.7624 182.388 42.271 183.522C49.0625 184.656 62.6455 180.971 66.3242 179.838C67.1731 181.821 68.305 183.805 69.154 185.506C73.6816 194.858 78.4922 203.927 82.7369 212.996C84.1518 216.114 85.5667 219.515 86.9816 222.632C85.5667 220.648 84.7178 219.231 84.4348 218.948C78.4923 212.146 62.9284 202.227 53.5901 206.195C46.7986 209.029 44.8178 217.247 48.2135 223.482C51.6093 229.717 60.0987 232.835 66.6072 233.969C73.1157 234.819 85.8497 231.701 90.0944 230.568C91.5093 233.969 92.6413 237.369 93.7732 240.487C94.6221 242.754 95.471 245.021 96.037 247.289C96.6029 249.556 97.1689 251.823 98.0179 254.091C99.1498 258.342 100.282 262.876 101.131 267.127C101.697 269.961 102.263 273.079 102.828 275.913C101.414 272.795 98.3009 266.56 98.0179 265.994C93.2072 258.342 79.3412 246.155 69.437 248.706C62.3625 250.406 59.2497 258.342 61.5135 264.86C64.0603 271.662 71.7008 275.913 78.2093 277.897C85.2838 280.164 101.131 278.18 103.111 277.897C103.96 282.715 104.809 287.249 105.658 291.5C107.356 300.286 108.488 308.505 109.337 315.307H115.846C114.714 308.221 113.299 299.719 111.318 290.367C110.469 285.549 109.337 280.447 108.205 275.063C109.337 274.496 116.129 271.945 122.071 268.544C127.165 274.213 140.748 280.731 142.446 281.581C140.748 286.116 138.767 290.367 137.069 294.334C133.673 301.986 130.56 309.072 127.731 315.023H134.805C137.352 309.639 139.899 303.404 142.729 296.602C144.709 292.067 146.407 287.249 148.388 282.148C150.369 282.431 165.933 285.832 173.29 284.132C179.799 282.715 188.005 278.747 190.835 272.229C193.665 265.71 191.118 257.775 184.043 255.508C174.422 252.39 159.707 263.16 154.331 270.528C154.048 271.095 151.218 275.913 149.237 279.314C150.086 277.33 150.652 275.346 151.501 273.079C152.916 268.828 154.331 264.577 156.029 260.042C156.595 257.775 157.443 255.508 158.009 253.24C158.858 250.973 159.141 248.422 159.707 246.155C161.122 240.77 161.971 235.102 163.103 229.151C166.782 230.568 179.799 235.102 186.873 234.535C193.665 233.969 202.154 231.701 206.116 225.466C210.078 219.515 208.663 211.296 202.154 207.895C193.099 203.077 176.969 211.863 170.46 218.381C170.177 218.665 165.933 224.049 163.669 226.883C164.235 223.482 164.801 220.082 165.084 216.397C166.216 206.195 167.348 195.992 168.197 185.789C168.48 182.672 168.763 179.554 169.046 176.437C170.46 177.004 185.741 182.672 193.382 182.105C200.173 181.538 208.663 179.271 212.624 173.036C216.586 167.084 215.171 158.865 208.663 155.465C199.607 150.647 183.478 159.432 176.969 165.951C176.403 166.517 170.46 173.886 169.046 175.87C169.894 169.068 170.461 161.983 171.592 155.465C173.007 146.112 174.988 137.043 177.535 128.541C178.101 128.824 194.231 134.776 202.154 134.209C208.946 133.642 217.435 131.375 221.397 125.14C225.358 119.188 223.944 110.969 217.435 107.569C208.38 102.751 192.25 111.536 185.741 118.055C185.175 118.621 178.95 126.557 177.818 127.974C178.101 127.407 178.101 126.84 178.101 126.274C180.931 117.204 184.892 108.702 188.854 100.767C191.118 96.2322 193.665 91.9811 196.212 88.0134C199.041 89.4304 212.341 95.9488 219.416 96.2322C226.207 96.5157 234.98 95.0986 239.507 89.4304C244.035 84.0457 243.469 75.5435 237.527 71.5757C229.037 65.9076 212.058 72.7094 204.701 78.3775C204.418 78.6609 200.739 82.3452 198.192 84.8959C199.324 83.1955 200.456 81.2116 201.588 79.5112C205.833 72.9928 210.078 67.3246 214.039 62.5067C216.303 59.6726 218.284 57.1219 220.265 54.8547C223.944 54.8547 238.375 54.2879 244.601 51.4538C250.827 48.6197 257.901 43.2349 259.316 36.1497C260.731 29.3479 256.486 21.9793 249.129 21.4125C238.941 20.2789 227.056 34.1659 223.378 42.6681C223.095 43.5183 219.416 55.1381 219.416 55.1381H219.699C217.718 57.4053 215.737 59.6726 213.473 62.2233C209.512 67.0412 204.984 72.7094 200.739 78.9444C196.212 85.1793 191.684 92.2645 187.439 100.2C183.195 108.135 179.233 116.638 176.12 125.707V125.99C176.12 122.873 176.12 114.654 175.837 114.087C174.705 105.018 167.065 88.2968 157.16 86.313C149.803 84.8959 143.86 90.5641 143.295 97.6493C142.729 104.734 147.822 112.103 152.916 116.638C158.575 121.739 174.422 126.84 175.837 127.124C173.007 135.909 170.743 145.262 169.046 154.898C168.197 160.282 167.348 165.951 166.499 171.335C166.499 168.785 166.499 166.517 166.499 166.234C165.367 157.165 157.726 140.444 147.822 138.46C140.465 137.043 134.522 142.711 133.956 149.796C133.39 156.882 138.484 164.25 143.577 168.785C148.671 173.319 162.254 177.854 165.65 178.987C165.367 181.255 165.084 183.239 164.801 185.506C163.669 195.708 162.537 205.911 160.839 215.83C160.273 219.231 159.707 222.916 159.141 226.317C159.141 224.049 159.141 222.065 159.141 221.782C158.009 212.713 150.369 195.992 140.465 194.008C133.107 192.591 127.165 198.259 126.599 205.344C126.033 212.43 131.126 219.798 136.22 224.333C141.031 228.584 153.482 233.118 157.726 234.252C156.877 237.653 156.312 241.337 155.463 244.738C154.897 247.005 154.331 249.273 153.482 251.54C152.633 253.807 152.067 256.074 151.218 258.342C149.803 262.593 148.105 266.844 146.407 271.095C145.275 273.929 144.143 276.763 143.012 279.314C143.577 275.913 144.426 268.828 144.426 268.261C144.426 262.309 142.446 252.39 138.201 245.588C138.201 244.738 138.201 243.888 137.918 243.038C136.786 235.952 130.277 230.851 123.203 232.835C113.299 235.386 107.073 252.673 106.507 261.743C106.507 262.309 106.79 268.261 107.073 271.945C106.507 269.678 106.224 267.694 105.658 265.427C104.526 261.176 103.394 256.641 102.263 252.107C101.697 249.839 100.848 247.572 100.282 245.305C99.7157 243.038 98.5838 240.77 98.0179 238.503C96.037 233.118 93.7731 227.734 91.5093 222.632C95.188 221.782 108.771 218.381 114.148 214.13C119.524 209.879 125.184 203.077 125.184 195.992C125.184 188.907 119.524 182.955 112.167 183.522C101.98 184.656 93.2072 200.81 91.5093 209.595C91.5093 210.162 90.6604 216.681 90.6604 220.365C89.2455 217.247 87.8306 214.13 86.1327 210.729C81.6051 201.66 76.7944 192.591 71.9838 183.522C70.5689 180.688 69.154 177.854 67.7391 175.02C69.154 174.736 85.2837 171.052 91.2263 166.234C96.6029 161.983 102.263 155.181 102.263 148.096C102.263 141.011 96.603 135.059 89.2455 135.626C79.0583 136.76 70.2859 152.914 68.588 161.7C68.588 162.266 67.7391 171.902 67.4561 174.169C64.3433 167.934 61.2306 161.983 58.4008 155.748C54.4391 147.246 51.0433 138.46 48.4965 129.958C49.0625 129.674 66.0412 125.99 72.2668 121.172C77.6434 116.921 83.3029 110.119 83.3029 103.034C83.3029 95.9488 77.6433 89.9973 70.2859 90.5641C60.0986 91.6977 51.3263 107.852 49.6284 116.638C49.3455 117.204 48.4965 127.407 48.4965 129.391C48.2136 128.824 48.2135 128.257 47.9305 127.974C45.1008 118.905 43.6859 109.552 42.837 100.767C42.271 95.6654 41.988 90.8475 41.988 86.0296C45.1007 85.7461 59.8156 83.7623 66.0412 80.078C71.9837 76.6771 78.2093 70.4421 79.0582 63.3569C79.9072 56.2717 74.8135 49.7533 67.4561 49.7533C57.2688 49.7533 46.7986 64.7739 43.9689 73.5596C43.6859 74.1264 42.8369 78.9444 41.988 82.6287C41.988 80.3614 41.988 78.3775 41.988 76.1103C41.988 68.4583 42.554 61.373 42.837 55.1381C43.1199 51.4538 43.4029 48.3363 43.9689 45.5022C46.7986 43.5183 58.6838 35.0161 62.3625 29.0645C65.7582 23.113 68.871 14.8941 66.0412 8.09233C63.4944 1.57395 55.854 -2.11036 49.3454 1.29054C40.2901 6.10848 38.0263 24.2466 39.4412 33.3157C39.4412 34.1659 43.1199 46.069 43.1199 45.7856H43.4029C43.1199 48.6197 42.5539 51.7372 42.271 55.1381C41.705 61.373 41.139 68.4583 40.8561 76.1103C40.5731 83.7623 40.5731 92.2645 41.4221 101.05C42.271 109.836 43.4028 119.188 45.9497 128.541V128.824C44.2518 126.273 39.7241 119.472 39.1582 118.905C33.2156 112.103 17.6518 102.184 8.31347 106.152C1.52198 108.986 -0.45886 117.204 2.93689 123.439C6.61562 130.241 14.822 133.359 21.6135 134.492Z" fill="#93D1C4"/>
<path d="M196.494 86.5962C196.777 86.5962 199.607 74.6931 199.89 73.8429C201.022 64.7738 198.192 46.6357 189.137 42.1012C182.629 38.9837 175.271 42.668 172.724 49.4698C170.177 56.2716 173.29 64.4904 176.969 70.1586C181.214 76.9604 196.212 86.5962 196.494 86.5962Z" fill="#93D1C4"/>
<path d="M203.002 170.484C207.53 172.468 218.566 172.185 218.566 172.185C218.566 172.185 216.303 164.816 216.02 164.533C213.473 159.431 205.832 150.929 199.607 151.779C195.079 152.346 192.532 156.881 193.664 161.132C194.796 165.666 199.041 168.784 203.002 170.484Z" fill="#93D1C4"/>
<path d="M206.965 202.793C211.775 203.36 221.679 200.526 222.245 200.243C223.943 205.911 225.924 211.296 228.188 216.964C229.603 220.081 231.018 223.199 232.433 226.316C231.584 224.899 230.735 223.766 230.452 223.766C226.773 219.515 217.152 213.28 211.209 215.83C206.965 217.531 205.833 222.632 207.814 226.6C210.077 230.567 215.171 232.551 219.416 233.118C223.66 233.685 232.15 231.418 234.414 230.851C234.98 231.984 235.546 233.118 236.111 234.535C238.941 240.203 241.771 245.871 244.601 251.54C245.45 253.523 246.299 255.507 247.148 257.491C246.299 256.358 245.733 255.224 245.45 255.224C241.771 250.973 232.15 244.738 226.207 247.288C221.963 248.989 220.831 254.09 222.811 258.058C225.075 262.026 230.169 264.01 234.414 264.576C238.375 265.143 246.299 263.159 249.128 262.309C249.977 264.293 250.826 266.56 251.392 268.544C251.958 269.961 252.241 271.378 252.807 272.795C253.09 274.212 253.656 275.629 253.939 277.046C254.505 279.88 255.354 282.431 255.92 285.265C256.203 287.249 256.769 288.949 257.052 290.65C256.203 288.666 254.222 284.698 253.939 284.415C250.826 279.597 242.337 272.228 236.111 273.645C231.584 274.779 229.603 279.597 231.301 283.565C232.716 287.816 237.526 290.367 241.771 291.784C246.299 293.201 255.92 291.784 257.335 291.784C257.901 294.618 258.467 297.735 259.033 300.286C259.882 305.671 260.731 310.772 261.297 315.023H265.541C264.975 310.488 263.843 305.387 262.712 299.436C262.146 296.318 261.58 293.201 260.731 290.083C261.58 289.8 265.541 288.099 269.503 286.115C272.616 289.516 281.105 293.767 282.237 294.334C281.105 297.168 279.973 299.719 278.841 302.27C276.86 307.088 274.88 311.339 272.899 315.023H277.426C278.841 311.622 280.539 307.938 282.237 303.687C283.369 300.853 284.501 297.735 285.633 294.618C286.765 294.901 296.669 296.885 301.197 295.751C305.441 294.901 310.252 292.35 312.233 288.383C313.931 284.415 312.516 279.597 307.988 277.897C302.046 275.913 292.707 282.714 289.595 287.249C289.312 287.532 287.614 290.65 286.482 292.634C287.048 291.217 287.331 290.083 287.897 288.666C288.746 286.115 289.594 283.281 290.726 280.447C291.009 279.03 291.575 277.613 291.858 276.196C292.424 274.779 292.707 273.362 292.99 271.945C293.839 268.544 294.405 264.86 294.971 261.459C297.235 262.309 305.441 265.143 309.686 264.86C313.931 264.576 319.307 262.876 321.571 259.192C323.835 255.507 322.986 250.406 319.024 248.422C313.365 245.588 303.177 250.973 299.216 254.941C298.933 255.224 296.386 258.341 294.971 260.042C295.254 257.775 295.537 255.791 295.82 253.523C296.669 247.288 297.235 240.77 297.801 234.535C298.084 232.551 298.084 230.567 298.367 228.584C299.216 228.867 308.837 232.551 313.648 232.268C317.892 231.984 323.269 230.284 325.533 226.6C327.797 222.915 326.948 217.814 322.986 215.83C317.326 212.996 307.139 218.381 303.178 222.349C302.895 222.632 299.216 227.167 298.367 228.584C298.933 224.332 299.216 220.081 300.065 215.83C300.914 210.162 302.046 204.494 303.743 199.109C304.026 199.393 314.214 203.077 319.024 202.793C323.269 202.51 328.646 200.81 330.909 197.125C333.173 193.441 332.324 188.34 328.363 186.356C322.703 183.522 312.516 188.906 308.554 192.874C308.271 193.158 304.309 198.259 303.743 199.109C303.743 198.826 304.026 198.542 304.026 198.259C305.724 192.591 308.271 187.206 310.535 182.388C311.95 179.554 313.648 177.003 315.063 174.453C316.761 175.303 325.25 179.271 329.495 179.554C333.739 179.837 339.116 178.704 341.946 175.303C344.775 171.902 344.492 166.801 340.531 164.25C335.154 160.849 324.684 164.817 320.156 168.501C319.873 168.784 317.609 171.052 316.194 172.469C317.043 171.335 317.609 170.201 318.458 169.068C321.005 165.1 323.835 161.699 326.099 158.582C327.514 156.881 328.646 155.181 330.06 153.764C332.324 153.764 341.38 153.48 345.058 151.497C349.02 149.796 353.265 146.395 354.114 141.861C354.963 137.61 352.416 133.075 347.888 132.508C341.663 131.941 334.022 140.444 331.758 145.545C331.475 146.112 329.212 153.197 329.495 153.197C328.363 154.614 326.948 156.031 325.816 157.732C323.269 160.849 320.722 164.25 317.892 168.218C315.063 172.185 312.233 176.436 309.686 181.254C307.139 186.072 304.592 191.457 302.612 197.125C302.612 197.125 302.612 197.125 302.612 197.409C302.612 195.425 302.612 190.323 302.612 190.04C301.763 184.372 297.235 173.886 291.009 172.752C286.482 171.902 282.803 175.303 282.237 179.837C281.954 184.372 285.067 188.623 288.18 191.457C291.858 194.575 301.48 197.692 302.329 197.975C300.631 203.36 299.216 209.312 298.084 215.263C297.518 218.664 296.952 222.065 296.386 225.466C296.386 223.766 296.386 222.349 296.386 222.349C295.537 216.68 291.009 206.194 284.784 205.061C280.256 204.21 276.577 207.611 276.011 212.146C275.728 216.68 278.841 220.932 281.954 223.766C285.067 226.6 293.556 229.434 295.82 230.001C295.537 231.418 295.537 232.551 295.254 233.968C294.405 240.203 293.839 246.722 292.99 252.957C292.707 255.224 292.141 257.208 291.858 259.475C291.858 258.058 291.858 256.924 291.858 256.641C291.009 250.973 286.482 240.487 280.256 239.353C275.728 238.503 272.05 241.904 271.484 246.438C271.201 250.973 274.314 255.224 277.426 258.058C280.539 260.892 288.18 263.443 290.726 264.293C290.16 266.56 289.877 268.544 289.311 270.811C289.028 272.228 288.746 273.645 288.18 275.062C287.614 276.48 287.331 277.897 286.765 279.314C285.916 281.864 284.784 284.698 283.935 287.249C283.369 288.949 282.52 290.65 281.954 292.35C282.237 290.083 282.803 285.832 282.803 285.549C282.803 281.864 281.671 275.629 278.841 271.378C278.841 270.811 278.841 270.245 278.841 269.678C278.275 265.427 274.031 262.026 269.786 263.443C263.56 265.143 259.882 275.913 259.599 281.581C259.599 281.864 259.882 285.549 259.882 287.816C259.599 286.399 259.316 285.265 259.033 283.848C258.467 281.014 257.618 278.463 256.769 275.629C256.486 274.212 255.92 272.795 255.637 271.378C255.354 269.961 254.788 268.544 254.222 267.127C253.09 263.726 251.675 260.609 250.26 257.208C252.524 256.641 261.014 254.374 264.409 251.823C267.805 249.272 271.201 245.021 271.201 240.487C271.201 236.236 267.522 232.268 262.994 232.835C256.769 233.401 251.109 243.604 249.978 248.989C249.978 249.272 249.412 253.523 249.412 255.507C248.563 253.523 247.714 251.54 246.582 249.556C243.752 243.888 240.639 238.219 237.809 232.551C236.96 230.851 236.111 229.15 234.979 227.45C235.828 227.167 245.733 224.899 249.694 222.065C253.09 219.514 256.486 215.263 256.486 210.729C256.486 206.478 252.807 202.51 248.28 203.077C242.054 203.644 236.394 213.846 235.263 219.231C235.263 219.514 234.697 225.466 234.697 226.883C232.716 223.199 230.735 219.231 229.037 215.263C226.49 209.879 224.509 204.494 222.811 199.393C223.094 199.393 233.565 196.842 237.526 194.008C240.922 191.457 244.318 187.206 244.318 182.671C244.318 178.42 240.639 174.453 236.111 175.019C229.886 175.586 224.226 185.789 223.095 191.174C223.095 191.741 222.529 197.975 222.529 199.109C222.529 198.826 222.245 198.542 222.245 198.259C220.548 192.591 219.699 186.923 219.133 181.254C218.85 178.137 218.567 175.019 218.567 172.185C220.548 171.902 229.603 170.768 233.565 168.501C237.243 166.234 241.205 162.549 241.488 158.015C242.054 153.764 238.941 149.513 234.414 149.513C228.188 149.513 221.68 158.865 219.699 164.25C219.699 164.533 218.85 167.651 218.567 169.918C218.567 168.501 218.567 167.084 218.567 165.95C218.567 161.132 218.85 156.881 219.133 152.914C219.416 150.646 219.416 148.662 219.699 146.962C221.397 145.828 228.754 140.444 231.018 136.759C233.282 133.075 234.98 127.974 233.282 123.723C231.584 119.755 227.056 117.488 223.095 119.471C217.435 122.306 216.02 133.642 216.869 139.31C216.869 139.877 219.133 147.245 219.133 147.245C218.85 148.946 218.567 150.93 218.284 152.914C218.001 156.881 217.435 161.132 217.435 165.95C217.435 170.768 217.435 175.87 217.718 181.538C218.284 186.923 219.133 192.874 220.548 198.826C220.548 198.826 220.548 198.826 220.548 199.109C219.416 197.409 216.586 193.158 216.303 192.874C212.624 188.623 203.003 182.388 197.06 184.939C192.816 186.639 191.684 191.741 193.665 195.708C197.626 200.243 202.72 202.227 206.965 202.793Z" fill="#93D1C4"/>
<path d="M315.346 173.036C315.346 173.036 317.327 165.667 317.327 165.1C318.175 159.432 316.195 148.096 310.535 145.545C306.29 143.561 301.763 145.828 300.348 150.08C298.933 154.331 300.631 159.432 303.178 163.116C306.007 167.084 315.346 173.036 315.346 173.036Z" fill="#93D1C4"/>
</svg>
