<svg width="22" height="27" viewBox="0 0 22 27" fill="none" xmlns="http://www.w3.org/2000/svg">
<path d="M5.5 0H2.75C2.02065 0 1.32118 0.284463 0.805457 0.790812C0.289732 1.29716 0 1.98392 0 2.7V24.3C0 25.0161 0.289732 25.7028 0.805457 26.2092C1.32118 26.7155 2.02065 27 2.75 27H5.5C6.22935 27 6.92882 26.7155 7.44454 26.2092C7.96027 25.7028 8.25 25.0161 8.25 24.3V2.7C8.25 1.98392 7.96027 1.29716 7.44454 0.790812C6.92882 0.284463 6.22935 0 5.5 0ZM19.25 0H16.5C15.7707 0 15.0712 0.284463 14.5555 0.790812C14.0397 1.29716 13.75 1.98392 13.75 2.7V24.3C13.75 25.0161 14.0397 25.7028 14.5555 26.2092C15.0712 26.7155 15.7707 27 16.5 27H19.25C19.9793 27 20.6788 26.7155 21.1945 26.2092C21.7103 25.7028 22 25.0161 22 24.3V2.7C22 1.98392 21.7103 1.29716 21.1945 0.790812C20.6788 0.284463 19.9793 0 19.25 0Z" fill="white"/>
</svg>
